# xmcd
#
# Track frame offsets:
#	150
#	10266
#	27451
#	45553
#	63031
#	86079
#	106298
#	127820
#	147481
#	167189
#
# Disc length: 2893 seconds
#
# Revision: 0
# Processed by: cddbd v1.5.1PL2 Copyright (c) Steve Scherf et al.
# Submitted via: EasyCDDAExtractor 8.1.2.3
#
DISCID=7f0b4b0a
DTITLE=Sakage Kronik - Chroniques d'un saccage
DYEAR=2005
DGENRE=Rap
TTITLE0=Préambule feat Dj VR
TTITLE1=Une balle dit toujours la vérité
TTITLE2=Burn out
TTITLE3=4.80 barres de nos vies
TTITLE4=Révolté feat L'indis, R2eno and Sinik
TTITLE5=Garde la pêche
TTITLE6=Mène au score feat Nakk
TTITLE7=Démonstration de flow
TTITLE8=Bouge toi and ferme la ! feat G-Moni
TTITLE9=Epilogue feat Bre-X, Da Pro, DJY, 1korruptible, Krèm, La cabine and opiu
TTITLE9=m (x-rap)
EXTD=
EXTT0=
EXTT1=
EXTT2=
EXTT3=
EXTT4=
EXTT5=
EXTT6=
EXTT7=
EXTT8=
EXTT9=
PLAYORDER=
